<?xml version="1.0" encoding="UTF-8" standalone="no"?>
<!-- Created with Inkscape (http://www.inkscape.org/) -->

<svg
   xmlns:dc="http://purl.org/dc/elements/1.1/"
   xmlns:cc="http://creativecommons.org/ns#"
   xmlns:rdf="http://www.w3.org/1999/02/22-rdf-syntax-ns#"
   xmlns:svg="http://www.w3.org/2000/svg"
   xmlns="http://www.w3.org/2000/svg"
   xmlns:sodipodi="http://sodipodi.sourceforge.net/DTD/sodipodi-0.dtd"
   xmlns:inkscape="http://www.inkscape.org/namespaces/inkscape"
   width="79.375mm"
   height="25.77352mm"
   viewBox="0 0 79.375002 25.773519"
   version="1.1"
   id="svg8"
   inkscape:version="0.92.3 (2405546, 2018-03-11)"
   sodipodi:docname="logo_binaptic.svg">
  <defs
     id="defs2" />
  <sodipodi:namedview
     id="base"
     pagecolor="#ffffff"
     bordercolor="#666666"
     borderopacity="1.0"
     inkscape:pageopacity="0.0"
     inkscape:pageshadow="2"
     inkscape:zoom="1.6290957"
     inkscape:cx="264.47911"
     inkscape:cy="99.245173"
     inkscape:document-units="mm"
     inkscape:current-layer="text68-3"
     showgrid="false"
     inkscape:window-width="1920"
     inkscape:window-height="1017"
     inkscape:window-x="0"
     inkscape:window-y="30"
     inkscape:window-maximized="1"
     fit-margin-top="0"
     fit-margin-left="0"
     fit-margin-right="0"
     fit-margin-bottom="0" />
  <metadata
     id="metadata5">
    <rdf:RDF>
      <cc:Work
         rdf:about="">
        <dc:format>image/svg+xml</dc:format>
        <dc:type
           rdf:resource="http://purl.org/dc/dcmitype/StillImage" />
        <dc:title></dc:title>
      </cc:Work>
    </rdf:RDF>
  </metadata>
  <g
     inkscape:label="Capa 1"
     inkscape:groupmode="layer"
     id="layer1"
     transform="translate(-66.638155,-245.57769)">
    <g
       aria-label="binaptic"
       style="font-style:normal;font-weight:100;font-size:54.94505692px;font-family:'Exo 2';letter-spacing:-4.32638264;isolation:isolate;fill:#000000;stroke:none;stroke-width:0.76312572"
       id="text68-3">
      <g
         id="g32"
         transform="matrix(0.51547029,0,0,0.51547029,32.288166,131.47772)">
        <path
           inkscape:connector-curvature="0"
           id="path123"
           style="font-style:normal;font-weight:100;font-size:54.94505692px;font-family:'Exo 2';letter-spacing:-4.32638264;isolation:isolate;fill:#ffffff;fill-opacity:1;stroke:none;stroke-width:0.76312572"
           d="m 78.835958,232.77978 q 3.516484,0 5.549451,1.37362 2.087912,1.37363 3.021978,4.39561 0.989011,3.02198 0.989011,8.07692 0,5.05495 -1.098901,8.07692 -1.043956,3.02198 -3.351649,4.39561 -2.307692,1.37362 -6.208791,1.37362 -4.725275,0 -11.098902,-1.70329 V 221.3512 h 1.318682 v 11.92308 1.92308 q 0,2.03297 -0.164836,3.18681 3.131869,-2.74725 5.769231,-4.17582 2.692308,-1.42857 5.274726,-1.42857 z m -1.098901,26.42857 q 3.351648,0 5.384615,-1.20879 2.032967,-1.26374 2.967033,-3.95605 0.934066,-2.74725 0.934066,-7.41758 0,-4.67033 -0.824176,-7.36264 -0.824175,-2.74725 -2.637362,-3.95604 -1.758242,-1.26374 -4.725275,-1.26374 -2.472528,0 -4.945055,1.31868 -2.417583,1.26374 -5.934066,4.17583 v 18.2967 q 2.747252,0.76923 5,1.0989 2.307692,0.27473 4.78022,0.27473 z" />
        <path
           inkscape:connector-curvature="0"
           id="path125"
           d="m 94.652088,259.81274 h -1.318681 v -26.37362 h 1.318681 z"
           style="font-style:normal;font-weight:100;font-size:54.94505692px;font-family:'Exo 2';letter-spacing:-4.32638264;isolation:isolate;fill:#ffffff;fill-opacity:1;stroke:none;stroke-width:0.76312572" />
        <path
           inkscape:connector-curvature="0"
           id="path127"
           style="font-style:normal;font-weight:100;font-size:54.94505692px;font-family:'Exo 2';letter-spacing:-4.32638264;isolation:isolate;fill:#ffffff;fill-opacity:1;stroke:none;stroke-width:0.76312572"
           d="m 114.97972,232.77978 q 3.51649,0 5.27473,1.81318 1.81319,1.81319 1.81319,5.38462 v 19.83516 h -1.31868 v -19.67033 q 0,-3.13186 -1.48352,-4.61538 -1.48352,-1.48352 -4.56044,-1.48352 -2.8022,0 -5.6044,1.26374 -2.74725,1.26374 -6.81318,4.12088 v 20.38461 h -1.31868 v -26.37362 h 0.98901 l 0.16483,4.83516 q 6.92308,-5.4945 12.85714,-5.4945 z" />
        <path
           inkscape:connector-curvature="0"
           id="path129"
           style="font-style:normal;font-weight:100;font-size:54.94505692px;font-family:'Exo 2';letter-spacing:-4.32638264;isolation:isolate;fill:#ffffff;fill-opacity:1;stroke:none;stroke-width:0.76312572"
           d="m 140.01117,232.77978 q 7.3077,0 7.3077,7.36263 v 19.67033 h -0.98901 l -0.27473,-5.10989 q -1.92308,1.97803 -5.6044,3.73627 -3.68131,1.70329 -7.1978,1.70329 -3.2967,0 -5.10989,-1.70329 -1.75824,-1.75824 -1.75824,-4.94506 v -3.40659 q 0,-2.96703 1.64835,-4.56044 1.64835,-1.64835 4.67033,-1.64835 h 13.29671 v -3.73627 q 0,-6.0989 -6.04396,-6.0989 -5.43956,0 -12.36264,0.87912 l -0.16483,-0.98901 1.53846,-0.21978 q 3.18681,-0.43956 5.54945,-0.65934 2.36264,-0.27472 5.4945,-0.27472 z m -6.48351,26.04395 q 3.02198,0 6.5934,-1.5934 3.57143,-1.64836 5.87913,-3.84616 v -8.40659 l -13.29671,0.21978 q -2.41758,0.0549 -3.68132,1.31868 -1.26373,1.20879 -1.26373,3.57143 v 3.40659 q 0,2.63737 1.42857,4.01099 1.48351,1.31868 4.34066,1.31868 z" />
        <path
           inkscape:connector-curvature="0"
           id="path131"
           style="font-style:normal;font-weight:100;font-size:54.94505692px;font-family:'Exo 2';letter-spacing:-4.32638264;isolation:isolate;fill:#ffffff;fill-opacity:1;stroke:none;stroke-width:0.76312572"
           d="m 165.30618,232.77978 q 3.51649,0 5.54946,1.37362 2.08791,1.37363 3.02197,4.39561 0.98901,3.02198 0.98901,8.07692 0,5.05495 -0.98901,8.07692 -0.93406,3.02198 -3.02197,4.39561 -2.03297,1.37362 -5.54946,1.37362 -2.63736,0 -5.32967,-0.71428 -2.63736,-0.71429 -5.65934,-2.1978 0.16484,1.26373 0.16484,3.2967 v 1.75824 8.73627 h -1.31868 v -37.91209 h 0.98901 l 0.21978,4.78022 q 2.96703,-2.74726 5.60439,-4.06594 2.63737,-1.37362 5.32967,-1.37362 z m 0,26.42857 q 2.96704,0 4.72528,-1.20879 1.81319,-1.26374 2.63736,-3.95605 0.82418,-2.74725 0.82418,-7.41758 0,-4.67033 -0.82418,-7.36264 -0.82417,-2.74725 -2.63736,-3.95604 -1.75824,-1.26374 -4.72528,-1.26374 -2.52747,0 -5,1.26374 -2.47252,1.20879 -5.82417,4.06593 v 17.19781 q 3.51648,1.42857 5.93406,2.03296 2.41759,0.6044 4.89011,0.6044 z" />
        <path
           inkscape:connector-curvature="0"
           id="path133"
           style="font-style:normal;font-weight:100;font-size:54.94505692px;font-family:'Exo 2';letter-spacing:-4.32638264;isolation:isolate;fill:#ffffff;fill-opacity:1;stroke:none;stroke-width:0.76312572"
           d="m 182.16885,234.64791 v 19.89011 q 0,2.14286 1.0989,3.2967 1.15385,1.0989 3.2967,1.0989 h 4.83517 l 0.16483,0.87912 q -2.1978,0.32967 -4.67033,0.32967 -3.02197,0 -4.56044,-1.42857 -1.48351,-1.42857 -1.48351,-4.12088 v -19.94505 h -4.78022 v -0.93407 l 4.78022,-0.27472 v -8.29671 h 1.31868 v 8.29671 h 9.78022 v 1.20879 z" />
        <path
           inkscape:connector-curvature="0"
           id="path135"
           d="m 195.68073,259.81274 h -1.31869 v -26.37362 h 1.31869 z"
           style="font-style:normal;font-weight:100;font-size:54.94505692px;font-family:'Exo 2';letter-spacing:-4.32638264;isolation:isolate;fill:#ffffff;fill-opacity:1;stroke:none;stroke-width:0.76312572" />
        <path
           inkscape:connector-curvature="0"
           id="path137"
           style="font-style:normal;font-weight:100;font-size:54.94505692px;font-family:'Exo 2';letter-spacing:-4.32638264;isolation:isolate;fill:#ffffff;fill-opacity:1;stroke:none;stroke-width:0.76312572"
           d="m 212.60177,232.77978 q 1.75824,0 3.79121,0.21978 2.03296,0.21978 3.62637,0.71428 l -0.32967,0.98901 q -1.31868,-0.32967 -3.2967,-0.4945 -1.97803,-0.16484 -3.57143,-0.16484 -4.12088,0 -6.48352,1.15385 -2.30769,1.0989 -3.35165,3.84615 -1.04395,2.69231 -1.04395,7.58242 0,4.89011 1.04395,7.63736 1.04396,2.69231 3.35165,3.84616 2.36264,1.0989 6.48352,1.0989 1.48351,0 3.73626,-0.16484 2.25275,-0.16483 3.84616,-0.4945 l 0.21978,0.98901 q -4.12088,0.93406 -7.96704,0.93406 -4.45055,0 -7.08791,-1.31868 -2.63736,-1.37362 -3.84615,-4.3956 -1.15385,-3.02198 -1.15385,-8.13187 0,-5.10989 1.15385,-8.13187 1.20879,-3.02198 3.79121,-4.34066 2.63736,-1.37362 7.08791,-1.37362 z" />
      </g>
    </g>
  </g>
</svg>
